<svg fill="currentColor" viewBox="0 0 56 56"><path stroke="currentColor" stroke-dasharray="100" stroke-width="3" d="m28 8 .35-.21.36-.19.37-.18.37-.16.38-.14.38-.12.38-.09.38-.05.38-.02.38.01.37.05.37.08.36.11.34.15.34.19.33.21.31.24.3.26.29.28.28.3.26.32.25.32.24.33.24.32.23.33.22.32.22.31.22.29.22.28.23.26.23.25.25.22.25.21.27.18.27.17.3.14.3.13.33.12.33.1.36.1.36.09.37.08.39.09.39.08.39.1.4.1.39.12.39.13.37.15.37.16.35.19.33.21.31.23.28.26.26.27.23.3.2.31.18.34.14.35.11.37.08.38.05.39.03.4v.4l-.02.41-.03.41-.05.4-.06.41-.07.39-.07.4-.07.38-.06.37-.05.37-.04.35-.03.35v.34l.01.33.03.32.06.32.08.31.1.31.13.31.15.31.16.32.18.31.2.32.2.33.21.33.22.33.21.35.21.35.19.36.18.37.16.37.14.38.12.38.09.38.05.38.02.38-.01.38-.05.37-.08.37-.11.36-.15.34-.19.34-.21.33-.24.31-.26.3-.28.29-.3.28-.32.26-.32.25-.33.24-.32.24-.33.23-.32.22-.31.22-.29.22-.28.22-.26.23-.25.23-.22.25-.21.25-.18.27-.17.27-.14.3-.13.3-.12.33-.1.33-.1.36-.09.36-.08.37-.09.39-.08.39-.1.39-.1.4-.12.39-.13.39-.15.37-.16.37-.19.35-.21.33-.23.31-.26.28-.27.26-.3.23-.31.2-.34.18-.35.14-.37.11-.38.08-.39.05-.4.03h-.4l-.41-.02-.41-.03-.4-.05-.41-.06-.39-.07-.4-.07-.38-.07-.37-.06-.37-.05-.35-.04-.35-.03h-.34l-.33.01-.32.03-.32.06-.31.08-.31.1-.31.13-.31.15-.32.16-.31.18-.32.2-.33.2-.33.21-.33.22L28 48l-.35.21-.36.19-.37.18-.37.16-.38.14-.38.12-.38.09-.38.05-.38.02-.38-.01-.37-.05-.37-.08-.36-.11-.34-.15-.34-.19-.33-.21-.31-.24-.3-.26-.29-.28-.28-.3-.26-.32-.25-.32-.24-.33-.24-.32-.23-.33-.22-.32-.22-.31-.22-.29-.22-.28-.23-.26-.23-.25-.25-.22-.25-.21-.27-.18-.27-.17-.3-.14-.3-.13-.33-.12-.33-.1-.36-.1-.36-.09-.37-.08-.39-.09-.39-.08-.39-.1-.4-.1-.39-.12-.39-.13-.37-.15-.37-.16-.35-.19-.33-.21-.31-.23-.28-.26-.26-.27-.23-.3-.2-.31-.18-.34-.14-.35-.11-.37-.08-.38-.05-.39-.03-.4v-.4l.02-.41.03-.41.05-.4.06-.41.07-.39.07-.4.07-.38.06-.37.05-.37.04-.35.03-.35v-.34l-.01-.33-.03-.32-.06-.32-.08-.31-.1-.31-.13-.31-.15-.31-.16-.32-.18-.31-.2-.32-.2-.33-.21-.33-.22-.33L8 28Z" class="fill-primary-container" pathLength="100" style="stroke-dashoffset:var(--scroll-progress, 100);transition:stroke-dashoffset 150ms ease-in-out"/></svg>